<svg width="18" height="18" viewBox="0 0 18 18" fill="none" xmlns="http://www.w3.org/2000/svg">
<path d="M14.4929 7.10156C14.4929 7.10156 14.0856 12.1528 13.8494 14.2806C13.7369 15.2968 13.1091 15.8923 12.0809 15.9111C10.1241 15.9463 8.16511 15.9486 6.20911 15.9073C5.21986 15.8871 4.60261 15.2841 4.49236 14.2858C4.25461 12.1393 3.84961 7.10156 3.84961 7.10156" stroke="#CC5F5F" strokeWidth="1.5" strokeLinecap="round" strokeLinejoin="round"/>
<path d="M15.531 4.67969H2.8125" stroke="#CC5F5F" strokeWidth="1.5" strokeLinecap="round" strokeLinejoin="round"/>
<path d="M13.0809 4.67925C12.4922 4.67925 11.9852 4.263 11.8697 3.68625L11.6874 2.77425C11.5749 2.3535 11.1939 2.0625 10.7597 2.0625H7.58492C7.15067 2.0625 6.76967 2.3535 6.65717 2.77425L6.47492 3.68625C6.35942 4.263 5.85242 4.67925 5.26367 4.67925" stroke="#CC5F5F" strokeWidth="1.5" strokeLinecap="round" strokeLinejoin="round"/>
</svg>
