<svg width="29" height="29" viewBox="0 0 29 29" fill="none" xmlns="http://www.w3.org/2000/svg">
<rect width="29" height="29" rx="4" fill="white"/>
<path d="M26.5846 13.3887V14.5004C26.5832 17.1061 25.7394 19.6415 24.1792 21.7284C22.6191 23.8154 20.4261 25.3422 17.9274 26.081C15.4286 26.8198 12.758 26.731 10.3138 25.828C7.86958 24.925 5.78276 23.2561 4.36455 21.0702C2.94633 18.8843 2.27272 16.2985 2.44416 13.6985C2.61561 11.0984 3.62293 8.62347 5.31589 6.6427C7.00885 4.66194 9.29675 3.28149 11.8384 2.70725C14.38 2.13301 17.0391 2.39573 19.4192 3.45624" stroke="black" strokeWidth="2" strokeLinecap="round" strokeLinejoin="round"/>
<path d="M26.5833 4.83203L14.5 16.9274L10.875 13.3024" stroke="black" strokeWidth="2" strokeLinecap="round" strokeLinejoin="round"/>
</svg>
