<svg width="20" height="20" viewBox="0 0 20 20" fill="none" xmlns="http://www.w3.org/2000/svg">
<path d="M16.1032 7.89062C16.1032 7.89062 15.6507 13.5031 15.3882 15.8673C15.2632 16.9965 14.5657 17.6581 13.4232 17.679C11.249 17.7181 9.07234 17.7206 6.89901 17.6748C5.79984 17.6523 5.11401 16.9823 4.99151 15.8731C4.72734 13.4881 4.27734 7.89062 4.27734 7.89062" stroke="#130F26" stroke-width="1.5" stroke-linecap="round" stroke-linejoin="round"/>
<path d="M17.2567 5.20182H3.125" stroke="#130F26" stroke-width="1.5" stroke-linecap="round" stroke-linejoin="round"/>
<path d="M14.5335 5.20047C13.8793 5.20047 13.316 4.73797 13.1877 4.09714L12.9852 3.0838C12.8602 2.6163 12.4368 2.29297 11.9543 2.29297H8.42682C7.94432 2.29297 7.52099 2.6163 7.39599 3.0838L7.19349 4.09714C7.06516 4.73797 6.50182 5.20047 5.84766 5.20047" stroke="#130F26" stroke-width="1.5" stroke-linecap="round" stroke-linejoin="round"/>
</svg>
