<svg width="29" height="29" viewBox="0 0 24 24" fill="none" xmlns="http://www.w3.org/2000/svg">
  <path d="M12 15.5C13.933 15.5 15.5 13.933 15.5 12C15.5 10.067 13.933 8.5 12 8.5C10.067 8.5 8.5 10.067 8.5 12C8.5 13.933 10.067 15.5 12 15.5Z" stroke="black" strokeWidth="2" strokeLinecap="round" strokeLinejoin="round"/>
  <path d="M19.14 12.94C19.19 12.64 19.22 12.32 19.22 12C19.22 11.68 19.19 11.36 19.14 11.06L20.84 9.73C21 9.6 21.05 9.36 20.96 9.16L19.26 5.84C19.16 5.63 18.93 5.53 18.72 5.6L16.56 6.33C16.06 5.96 15.5 5.66 14.89 5.45L14.5 3.14C14.47 2.92 14.29 2.75 14.07 2.75H9.93C9.71 2.75 9.53 2.92 9.5 3.14L9.11 5.45C8.5 5.66 7.94 5.96 7.44 6.33L5.28 5.6C5.07 5.53 4.84 5.63 4.74 5.84L3.04 9.16C2.95 9.36 3 9.6 3.16 9.73L4.86 11.06C4.81 11.36 4.78 11.68 4.78 12C4.78 12.32 4.81 12.64 4.86 12.94L3.16 14.27C3 14.4 2.95 14.64 3.04 14.84L4.74 18.16C4.84 18.37 5.07 18.47 5.28 18.4L7.44 17.67C7.94 18.04 8.5 18.34 9.11 18.55L9.5 20.86C9.53 21.08 9.71 21.25 9.93 21.25H14.07C14.29 21.25 14.47 21.08 14.5 20.86L14.89 18.55C15.5 18.34 16.06 18.04 16.56 17.67L18.72 18.4C18.93 18.47 19.16 18.37 19.26 18.16L20.96 14.84C21.05 14.64 21 14.4 20.84 14.27L19.14 12.94Z" stroke="black" strokeWidth="2" strokeLinecap="round" strokeLinejoin="round"/>
</svg>