<svg width="20" height="20" viewBox="0 0 20 20" fill="none" xmlns="http://www.w3.org/2000/svg">
<path d="M16.6654 10V18.3333H3.33203V10" stroke="#007AFF" strokeWidth="1.2" strokeLinecap="round" strokeLinejoin="round"/>
<path d="M18.3346 5.83203H1.66797V9.9987H18.3346V5.83203Z" stroke="#007AFF" strokeWidth="1.2" strokeLinecap="round" strokeLinejoin="round"/>
<path d="M10 18.332V5.83203" stroke="#007AFF" strokeWidth="1.2" strokeLinecap="round" strokeLinejoin="round"/>
<path d="M10 5.83464H13.75C14.3025 5.83464 14.8324 5.61514 15.2231 5.22444C15.6138 4.83374 15.8333 4.30384 15.8333 3.7513C15.8333 3.19877 15.6138 2.66886 15.2231 2.27816C14.8324 1.88746 14.3025 1.66797 13.75 1.66797C10.8333 1.66797 10 5.83464 10 5.83464Z" stroke="#007AFF" strokeWidth="1.2" strokeLinecap="round" strokeLinejoin="round"/>
<path d="M10.0013 5.83464H6.2513C5.69877 5.83464 5.16886 5.61514 4.77816 5.22444C4.38746 4.83374 4.16797 4.30384 4.16797 3.7513C4.16797 3.19877 4.38746 2.66886 4.77816 2.27816C5.16886 1.88746 5.69877 1.66797 6.2513 1.66797C9.16797 1.66797 10.0013 5.83464 10.0013 5.83464Z" stroke="#007AFF" strokeWidth="1.2" strokeLinecap="round" strokeLinejoin="round"/>
</svg>
