<svg width="26" height="26" viewBox="0 0 26 26" fill="none" xmlns="http://www.w3.org/2000/svg">
<rect width="26" height="26" rx="13" fill="#F0F0F0"/>
<path opacity="0.4" d="M20.5 15.955C20.5 18.0475 18.82 19.7425 16.7275 19.75H16.72H9.2875C7.2025 19.75 5.5 18.0625 5.5 15.97V15.9625C5.5 15.9625 5.5045 12.643 5.5105 10.9735C5.51125 10.66 5.87125 10.4845 6.1165 10.6795C7.8985 12.0932 11.0853 14.671 11.125 14.7048C11.6575 15.1315 12.3325 15.3722 13.0225 15.3722C13.7125 15.3722 14.3875 15.1315 14.92 14.6965C14.9598 14.6702 18.0753 12.1697 19.8843 10.7327C20.1303 10.537 20.4918 10.7125 20.4925 11.0252C20.5 12.682 20.5 15.955 20.5 15.955Z" fill="#007AFF"/>
<path d="M20.1086 8.2555C19.4591 7.0315 18.1811 6.25 16.7741 6.25H9.28912C7.88212 6.25 6.60412 7.0315 5.95462 8.2555C5.80912 8.52925 5.87812 8.8705 6.12037 9.064L11.6891 13.5182C12.0791 13.8332 12.5516 13.99 13.0241 13.99C13.0271 13.99 13.0294 13.99 13.0316 13.99C13.0339 13.99 13.0369 13.99 13.0391 13.99C13.5116 13.99 13.9841 13.8332 14.3741 13.5182L19.9429 9.064C20.1851 8.8705 20.2541 8.52925 20.1086 8.2555Z" fill="#007AFF"/>
</svg>
