<svg width="20" height="20" viewBox="0 0 20 20" fill="none" xmlns="http://www.w3.org/2000/svg">
<path d="M17.856 2.14988C17.4394 1.72405 16.8227 1.56655 16.2477 1.73322L2.83935 5.60738C2.23269 5.77572 1.80269 6.25655 1.68685 6.86655C1.56852 7.48822 1.98185 8.27822 2.52185 8.60822L6.71435 11.1682C7.14435 11.4316 7.69935 11.3657 8.05519 11.0091L12.856 6.20822C13.0977 5.95738 13.4977 5.95738 13.7394 6.20822C13.981 6.44905 13.981 6.84155 13.7394 7.09155L8.93019 11.8924C8.57352 12.2491 8.50685 12.8024 8.76935 13.2332L11.331 17.4416C11.631 17.9407 12.1477 18.2249 12.7144 18.2249C12.781 18.2249 12.856 18.2249 12.9227 18.2157C13.5727 18.1332 14.0894 17.6907 14.281 17.0657L18.256 3.75822C18.431 3.19155 18.2727 2.57488 17.856 2.14988Z" fill="#1C1D22"/>
<path opacity="0.4" fillRule="evenodd" clipRule="evenodd" d="M2.50858 14.0086C2.34858 14.0086 2.18858 13.9478 2.06691 13.8253C1.82275 13.5811 1.82275 13.1861 2.06691 12.9419L3.20441 11.8036C3.44858 11.5603 3.84441 11.5603 4.08858 11.8036C4.33191 12.0478 4.33191 12.4436 4.08858 12.6878L2.95025 13.8253C2.82858 13.9478 2.66858 14.0086 2.50858 14.0086ZM5.64291 15.0023C5.48291 15.0023 5.32291 14.9414 5.20125 14.8189C4.95708 14.5748 4.95708 14.1798 5.20125 13.9356L6.33875 12.7973C6.58291 12.5539 6.97875 12.5539 7.22291 12.7973C7.46625 13.0414 7.46625 13.4373 7.22291 13.6814L6.08458 14.8189C5.96291 14.9414 5.80291 15.0023 5.64291 15.0023ZM5.85433 17.9756C5.976 18.0981 6.136 18.1589 6.296 18.1589C6.456 18.1589 6.616 18.0981 6.73766 17.9756L7.876 16.8381C8.11933 16.5939 8.11933 16.1981 7.876 15.9539C7.63183 15.7106 7.236 15.7106 6.99183 15.9539L5.85433 17.0923C5.61016 17.3364 5.61016 17.7314 5.85433 17.9756Z" fill="#1C1D22"/>
</svg>
