<svg width="24" height="24" viewBox="0 0 24 24" fill="none" xmlns="http://www.w3.org/2000/svg">
<path fillRule="evenodd" clipRule="evenodd" d="M20.8066 7.62288L20.1842 6.54279C19.6576 5.62887 18.4907 5.31359 17.5755 5.83798V5.83798C17.1399 6.09461 16.6201 6.16742 16.1307 6.04035C15.6413 5.91329 15.2226 5.59678 14.9668 5.16064C14.8023 4.88342 14.7139 4.56766 14.7105 4.24531V4.24531C14.7254 3.72849 14.5304 3.22767 14.17 2.85694C13.8096 2.4862 13.3145 2.27713 12.7975 2.27734H11.5435C11.0369 2.27734 10.5513 2.47918 10.194 2.83821C9.83666 3.19724 9.63714 3.68386 9.63958 4.19039V4.19039C9.62457 5.23619 8.77245 6.07608 7.72654 6.07597C7.40418 6.07262 7.08843 5.98421 6.8112 5.81968V5.81968C5.89603 5.29528 4.72908 5.61056 4.20251 6.52448L3.53432 7.62288C3.00838 8.53566 3.31937 9.70187 4.22997 10.2316V10.2316C4.82187 10.5733 5.1865 11.2049 5.1865 11.8883C5.1865 12.5718 4.82187 13.2033 4.22997 13.5451V13.5451C3.32053 14.0712 3.0092 15.2346 3.53432 16.1446V16.1446L4.16589 17.2339C4.41262 17.679 4.82657 18.0076 5.31616 18.1467C5.80575 18.2859 6.33061 18.2242 6.77459 17.9753V17.9753C7.21105 17.7206 7.73116 17.6508 8.21931 17.7815C8.70746 17.9121 9.12321 18.2323 9.37413 18.6709C9.53867 18.9482 9.62708 19.2639 9.63043 19.5863V19.5863C9.63043 20.6428 10.4869 21.4993 11.5435 21.4993H12.7975C13.8505 21.4993 14.7055 20.6484 14.7105 19.5954V19.5954C14.7081 19.0873 14.9088 18.5993 15.2681 18.24C15.6274 17.8807 16.1154 17.6799 16.6236 17.6824C16.9451 17.691 17.2596 17.779 17.5389 17.9387V17.9387C18.4517 18.4646 19.6179 18.1536 20.1476 17.243V17.243L20.8066 16.1446C21.0617 15.7068 21.1317 15.1853 21.0012 14.6956C20.8706 14.206 20.5502 13.7886 20.111 13.5359V13.5359C19.6717 13.2832 19.3514 12.8658 19.2208 12.3762C19.0902 11.8866 19.1602 11.3651 19.4153 10.9272C19.5812 10.6376 19.8213 10.3975 20.111 10.2316V10.2316C21.0161 9.70216 21.3264 8.54276 20.8066 7.63203V7.63203V7.62288Z" stroke="#130F26" strokeWidth="1.5" strokeLinecap="round" strokeLinejoin="round"/>
<circle cx="12.175" cy="11.8901" r="2.63616" stroke="#130F26" strokeWidth="1.5" strokeLinecap="round" strokeLinejoin="round"/>
</svg>
