<svg width="120" height="30" viewBox="0 0 120 30" fill="none" xmlns="http://www.w3.org/2000/svg">
<path d="M110.079 29.5216C107.964 29.5216 106.114 29.0432 104.528 28.0864C102.941 27.1296 101.708 25.8329 100.826 24.1963C99.9451 22.5597 99.5045 20.7469 99.5045 18.7577C99.5045 16.6931 99.9451 14.8676 100.826 13.2814C101.733 11.67 102.954 10.3984 104.49 9.46683C106.051 8.53522 107.788 8.06942 109.702 8.06942C111.313 8.06942 112.723 8.3338 113.932 8.86255C115.166 9.3913 116.21 10.1215 117.067 11.0531C117.923 11.9847 118.577 13.0548 119.03 14.2634C119.484 15.4468 119.71 16.7309 119.71 18.1157C119.71 18.4682 119.685 18.8333 119.635 19.211C119.61 19.5886 119.547 19.916 119.446 20.1929H103.583V16.4161H116.651L114.309 18.1912C114.536 17.033 114.473 16.0007 114.121 15.0943C113.793 14.1878 113.239 13.4702 112.459 12.9415C111.703 12.4127 110.784 12.1484 109.702 12.1484C108.669 12.1484 107.75 12.4127 106.945 12.9415C106.139 13.4451 105.522 14.2004 105.094 15.2076C104.691 16.1895 104.54 17.3855 104.641 18.7955C104.54 20.0544 104.704 21.1749 105.132 22.1569C105.585 23.1136 106.24 23.8564 107.096 24.3852C107.977 24.9139 108.984 25.1783 110.117 25.1783C111.25 25.1783 112.207 24.9391 112.988 24.4607C113.793 23.9823 114.423 23.3402 114.876 22.5345L118.879 24.4985C118.477 25.4804 117.847 26.3491 116.991 27.1045C116.135 27.8598 115.115 28.4515 113.932 28.8795C112.774 29.3076 111.489 29.5216 110.079 29.5216Z" fill="white"/>
<path d="M90.8195 29.0688V8.52289H95.7667V29.0688H90.8195Z" fill="white"/>
<path d="M69.0219 29.0686V0.478241H73.9694V19.2111L72.0811 18.6446L81.7496 8.52281H87.9058L80.3145 16.794L88.0569 29.0686H82.3917L75.669 18.418L78.6149 17.8137L72.421 24.4609L73.9694 21.4394V29.0686H69.0219Z" fill="white"/>
<path d="M57.4395 29.5216C55.2489 29.5216 53.3354 29.0054 51.6988 27.9731C50.0873 26.9156 48.9795 25.493 48.3752 23.7053L52.0764 21.9302C52.6052 23.0885 53.3354 23.9949 54.267 24.6495C55.2238 25.3042 56.2813 25.6315 57.4395 25.6315C58.3459 25.6315 59.0635 25.4301 59.5923 25.0272C60.121 24.6244 60.3854 24.0956 60.3854 23.441C60.3854 23.0381 60.2721 22.7108 60.0455 22.459C59.844 22.182 59.5545 21.9554 59.1768 21.7792C58.8243 21.5777 58.434 21.4141 58.006 21.2882L54.6447 20.344C52.9073 19.8404 51.5855 19.0725 50.679 18.0401C49.7978 17.0078 49.3571 15.7867 49.3571 14.3767C49.3571 13.1177 49.6719 12.0225 50.3013 11.0909C50.956 10.1341 51.8498 9.3913 52.9829 8.86255C54.1411 8.3338 55.463 8.06942 56.9485 8.06942C58.8872 8.06942 60.5994 8.53522 62.0849 9.46683C63.5705 10.3984 64.628 11.7077 65.2574 13.3947L61.4806 15.1698C61.1281 14.2382 60.5364 13.4954 59.7056 12.9415C58.8747 12.3876 57.9431 12.1106 56.9107 12.1106C56.0798 12.1106 55.4252 12.2994 54.9468 12.6771C54.4684 13.0548 54.2292 13.5458 54.2292 14.1501C54.2292 14.5277 54.3299 14.8551 54.5314 15.132C54.7328 15.409 55.0097 15.6356 55.3622 15.8118C55.7399 15.9881 56.168 16.1518 56.6464 16.3028L59.9322 17.2848C61.6191 17.7884 62.9158 18.5437 63.8223 19.5509C64.7539 20.558 65.2197 21.7918 65.2197 23.2521C65.2197 24.4859 64.8923 25.5811 64.2377 26.5379C63.5831 27.4695 62.6766 28.1997 61.5184 28.7285C60.3602 29.2572 59.0006 29.5216 57.4395 29.5216Z" fill="white"/>
<path d="M36.2401 29.5216C34.1251 29.5216 32.2745 29.0432 30.6882 28.0864C29.102 27.1296 27.8682 25.8329 26.987 24.1963C26.1057 22.5597 25.6651 20.7469 25.6651 18.7577C25.6651 16.6931 26.1057 14.8676 26.987 13.2814C27.8934 11.67 29.1146 10.3984 30.6505 9.46683C32.2115 8.53522 33.9489 8.06942 35.8624 8.06942C37.4739 8.06942 38.8839 8.3338 40.0924 8.86255C41.3262 9.3913 42.3711 10.1215 43.2272 11.0531C44.0833 11.9847 44.7379 13.0548 45.1911 14.2634C45.6443 15.4468 45.8709 16.7309 45.8709 18.1157C45.8709 18.4682 45.8458 18.8333 45.7954 19.211C45.7702 19.5886 45.7073 19.916 45.6066 20.1929H29.744V16.4161H42.8117L40.4701 18.1912C40.6967 17.033 40.6338 16.0007 40.2813 15.0943C39.954 14.1878 39.4 13.4702 38.6195 12.9415C37.8641 12.4127 36.9451 12.1484 35.8624 12.1484C34.8301 12.1484 33.9111 12.4127 33.1054 12.9415C32.2997 13.4451 31.6828 14.2004 31.2548 15.2076C30.8519 16.1895 30.7008 17.3855 30.8015 18.7955C30.7008 20.0544 30.8645 21.1749 31.2925 22.1569C31.7457 23.1136 32.4004 23.8564 33.2565 24.3852C34.1377 24.9139 35.1448 25.1783 36.2779 25.1783C37.4109 25.1783 38.3677 24.9391 39.1482 24.4607C39.954 23.9823 40.5834 23.3402 41.0366 22.5345L45.04 24.4985C44.6372 25.4804 44.0077 26.3491 43.1516 27.1045C42.2956 27.8598 41.2758 28.4515 40.0924 28.8795C38.9342 29.3076 37.6501 29.5216 36.2401 29.5216Z" fill="white"/>
<path d="M10.676 29.5218C8.68692 29.5218 6.91183 29.056 5.35076 28.1244C3.78968 27.1676 2.55593 25.8709 1.6495 24.2343C0.743071 22.5977 0.289856 20.7848 0.289856 18.7957C0.289856 16.7814 0.743071 14.9685 1.6495 13.3571C2.55593 11.7457 3.78968 10.4616 5.35076 9.50479C6.93701 8.548 8.69951 8.0696 10.6383 8.0696C12.1993 8.0696 13.5842 8.38434 14.7927 9.0138C16.0265 9.61809 16.9959 10.4742 17.7009 11.582L16.9455 12.6018V0.478256H21.8931V29.0686H17.2099V25.1029L17.7386 26.0849C17.0336 27.1928 16.0517 28.0488 14.7927 28.6531C13.5338 29.2322 12.1616 29.5218 10.676 29.5218ZM11.2048 24.9896C12.3378 24.9896 13.3324 24.7253 14.1884 24.1965C15.0445 23.6678 15.7118 22.9376 16.1901 22.006C16.6937 21.0744 16.9455 20.0043 16.9455 18.7957C16.9455 17.6123 16.6937 16.5548 16.1901 15.6232C15.7118 14.6664 15.0445 13.9236 14.1884 13.3949C13.3324 12.8661 12.3378 12.6018 11.2048 12.6018C10.0969 12.6018 9.10237 12.8787 8.22112 13.4326C7.33987 13.9614 6.64746 14.6916 6.14388 15.6232C5.66549 16.5296 5.42629 17.5871 5.42629 18.7957C5.42629 20.0043 5.66549 21.0744 6.14388 22.006C6.64746 22.9376 7.33987 23.6678 8.22112 24.1965C9.10237 24.7253 10.0969 24.9896 11.2048 24.9896Z" fill="white"/>
</svg>
