<svg width="20" height="20" viewBox="0 0 20 20" fill="none" xmlns="http://www.w3.org/2000/svg">
<g id="dots-vertical">
<g id="Icon">
<path d="M9.9974 10.8359C10.4576 10.8359 10.8307 10.4628 10.8307 10.0026C10.8307 9.54237 10.4576 9.16927 9.9974 9.16927C9.53716 9.16927 9.16406 9.54237 9.16406 10.0026C9.16406 10.4628 9.53716 10.8359 9.9974 10.8359Z" stroke="#6366F1" stroke-width="1.66667" stroke-linecap="round" stroke-linejoin="round"/>
<path d="M9.9974 5.0026C10.4576 5.0026 10.8307 4.62951 10.8307 4.16927C10.8307 3.70903 10.4576 3.33594 9.9974 3.33594C9.53716 3.33594 9.16406 3.70903 9.16406 4.16927C9.16406 4.62951 9.53716 5.0026 9.9974 5.0026Z" stroke="#6366F1" stroke-width="1.66667" stroke-linecap="round" stroke-linejoin="round"/>
<path d="M9.9974 16.6693C10.4576 16.6693 10.8307 16.2962 10.8307 15.8359C10.8307 15.3757 10.4576 15.0026 9.9974 15.0026C9.53716 15.0026 9.16406 15.3757 9.16406 15.8359C9.16406 16.2962 9.53716 16.6693 9.9974 16.6693Z" stroke="#6366F1" stroke-width="1.66667" stroke-linecap="round" stroke-linejoin="round"/>
</g>
</g>
</svg>
